<mxfile modified="2022-09-26T22:03:03.184Z" host="app.diagrams.net" agent="5.0 (X11; Linux x86_64) AppleWebKit/537.36 (KHTML, like Gecko) Chrome/105.0.0.0 Safari/537.36 Edg/105.0.1343.50" etag="qaAfXefhokw3iOuIgdC9" version="20.3.6" type="github">
  <diagram id="Ht1M8jgEwFfnCIfOTk4-" name="Page-1">
    <mxGraphModel dx="1111" dy="705" grid="1" gridSize="10" guides="1" tooltips="1" connect="1" arrows="1" fold="1" page="1" pageScale="1" pageWidth="1169" pageHeight="827" math="0" shadow="0">
      <root>
        <mxCell id="0" />
        <mxCell id="1" parent="0" />
        <mxCell id="UEzPUAAOIrF-is8g5C7q-74" value="" style="points=[[0,0],[0.25,0],[0.5,0],[0.75,0],[1,0],[1,0.25],[1,0.5],[1,0.75],[1,1],[0.75,1],[0.5,1],[0.25,1],[0,1],[0,0.75],[0,0.5],[0,0.25]];outlineConnect=0;gradientColor=none;html=1;whiteSpace=wrap;fontSize=12;fontStyle=0;shape=mxgraph.aws4.group;grIcon=mxgraph.aws4.group_aws_cloud_alt;strokeColor=#232F3E;fillColor=none;verticalAlign=top;align=left;spacingLeft=30;fontColor=#232F3E;dashed=0;labelBackgroundColor=#ffffff;container=1;pointerEvents=0;collapsible=0;recursiveResize=0;" parent="1" vertex="1">
          <mxGeometry x="235" y="139" width="890" height="550" as="geometry" />
        </mxCell>
        <mxCell id="oFimYsPyZa1FVkpFkLgv-26" value="" style="rounded=0;whiteSpace=wrap;html=1;fontColor=#000000;dashed=1;fillColor=none;" vertex="1" parent="UEzPUAAOIrF-is8g5C7q-74">
          <mxGeometry x="50" y="24" width="480" height="176" as="geometry" />
        </mxCell>
        <mxCell id="UEzPUAAOIrF-is8g5C7q-77" value="S3 Bucket" style="outlineConnect=0;fontColor=#232F3E;gradientColor=none;fillColor=#277116;strokeColor=none;dashed=0;verticalLabelPosition=bottom;verticalAlign=top;align=center;html=1;fontSize=12;fontStyle=0;aspect=fixed;pointerEvents=1;shape=mxgraph.aws4.bucket_with_objects;labelBackgroundColor=#ffffff;" parent="UEzPUAAOIrF-is8g5C7q-74" vertex="1">
          <mxGeometry x="439" y="60" width="75" height="78" as="geometry" />
        </mxCell>
        <mxCell id="oFimYsPyZa1FVkpFkLgv-5" value="" style="sketch=0;points=[[0,0,0],[0.25,0,0],[0.5,0,0],[0.75,0,0],[1,0,0],[0,1,0],[0.25,1,0],[0.5,1,0],[0.75,1,0],[1,1,0],[0,0.25,0],[0,0.5,0],[0,0.75,0],[1,0.25,0],[1,0.5,0],[1,0.75,0]];outlineConnect=0;fontColor=#232F3E;gradientColor=#F78E04;gradientDirection=north;fillColor=#D05C17;strokeColor=#ffffff;dashed=0;verticalLabelPosition=bottom;verticalAlign=top;align=center;html=1;fontSize=12;fontStyle=0;aspect=fixed;shape=mxgraph.aws4.resourceIcon;resIcon=mxgraph.aws4.ec2;" vertex="1" parent="UEzPUAAOIrF-is8g5C7q-74">
          <mxGeometry x="100" y="60" width="78" height="78" as="geometry" />
        </mxCell>
        <mxCell id="UEzPUAAOIrF-is8g5C7q-89" value="" style="edgeStyle=orthogonalEdgeStyle;rounded=0;orthogonalLoop=1;jettySize=auto;html=1;endArrow=open;endFill=0;strokeWidth=2;exitX=1;exitY=0.5;exitDx=0;exitDy=0;exitPerimeter=0;" parent="UEzPUAAOIrF-is8g5C7q-74" source="oFimYsPyZa1FVkpFkLgv-5" target="UEzPUAAOIrF-is8g5C7q-77" edge="1">
          <mxGeometry relative="1" as="geometry">
            <Array as="points" />
          </mxGeometry>
        </mxCell>
        <mxCell id="oFimYsPyZa1FVkpFkLgv-7" value="EC2 Server" style="text;html=1;align=center;verticalAlign=middle;resizable=0;points=[];autosize=1;strokeColor=none;fillColor=none;" vertex="1" parent="UEzPUAAOIrF-is8g5C7q-74">
          <mxGeometry x="94" y="138" width="90" height="30" as="geometry" />
        </mxCell>
        <mxCell id="oFimYsPyZa1FVkpFkLgv-10" value="" style="sketch=0;pointerEvents=1;shadow=0;dashed=0;html=1;strokeColor=none;fillColor=#505050;labelPosition=center;verticalLabelPosition=bottom;verticalAlign=top;outlineConnect=0;align=center;shape=mxgraph.office.concepts.clock;fontColor=#CC6600;" vertex="1" parent="UEzPUAAOIrF-is8g5C7q-74">
          <mxGeometry x="230" y="60" width="20" height="20" as="geometry" />
        </mxCell>
        <mxCell id="oFimYsPyZa1FVkpFkLgv-11" value="&lt;font&gt;Sends data daily at 11 AM&lt;/font&gt;" style="text;html=1;align=center;verticalAlign=middle;resizable=0;points=[];autosize=1;strokeColor=none;fillColor=none;fontColor=#000000;" vertex="1" parent="UEzPUAAOIrF-is8g5C7q-74">
          <mxGeometry x="245" y="55" width="160" height="30" as="geometry" />
        </mxCell>
        <mxCell id="UEzPUAAOIrF-is8g5C7q-107" value="" style="rounded=0;whiteSpace=wrap;html=1;labelBackgroundColor=none;fillColor=none;dashed=1;container=1;pointerEvents=0;collapsible=0;recursiveResize=0;" parent="UEzPUAAOIrF-is8g5C7q-74" vertex="1">
          <mxGeometry x="-167.25" y="210" width="612.5" height="300" as="geometry" />
        </mxCell>
        <mxCell id="UEzPUAAOIrF-is8g5C7q-85" value="AWS Lambda" style="outlineConnect=0;fontColor=#232F3E;gradientColor=#F78E04;gradientDirection=north;fillColor=#D05C17;strokeColor=#ffffff;dashed=0;verticalLabelPosition=bottom;verticalAlign=top;align=center;html=1;fontSize=12;fontStyle=0;aspect=fixed;shape=mxgraph.aws4.resourceIcon;resIcon=mxgraph.aws4.lambda;labelBackgroundColor=#ffffff;spacingTop=6;" parent="UEzPUAAOIrF-is8g5C7q-107" vertex="1">
          <mxGeometry x="297.25" y="111" width="78" height="78" as="geometry" />
        </mxCell>
        <mxCell id="oFimYsPyZa1FVkpFkLgv-37" value="Clonk API. It trains every sunday&lt;br&gt;&amp;nbsp;at 11 AM to have updated data for predictions." style="text;html=1;align=center;verticalAlign=middle;resizable=0;points=[];autosize=1;strokeColor=none;fillColor=none;fontColor=#000000;" vertex="1" parent="UEzPUAAOIrF-is8g5C7q-107">
          <mxGeometry x="201.25" y="76" width="270" height="40" as="geometry" />
        </mxCell>
        <mxCell id="oFimYsPyZa1FVkpFkLgv-41" value="&lt;b&gt;Data consumption and BI&lt;/b&gt;" style="text;html=1;align=center;verticalAlign=middle;resizable=0;points=[];autosize=1;strokeColor=none;fillColor=none;fontColor=#000000;" vertex="1" parent="UEzPUAAOIrF-is8g5C7q-107">
          <mxGeometry x="422.5" y="270" width="170" height="30" as="geometry" />
        </mxCell>
        <mxCell id="UEzPUAAOIrF-is8g5C7q-108" value="" style="rounded=0;whiteSpace=wrap;html=1;labelBackgroundColor=none;fillColor=none;dashed=1;container=1;pointerEvents=0;collapsible=0;recursiveResize=0;" parent="UEzPUAAOIrF-is8g5C7q-74" vertex="1">
          <mxGeometry x="590" y="15" width="280" height="375" as="geometry" />
        </mxCell>
        <mxCell id="oFimYsPyZa1FVkpFkLgv-15" value="" style="sketch=0;points=[[0,0,0],[0.25,0,0],[0.5,0,0],[0.75,0,0],[1,0,0],[0,1,0],[0.25,1,0],[0.5,1,0],[0.75,1,0],[1,1,0],[0,0.25,0],[0,0.5,0],[0,0.75,0],[1,0.25,0],[1,0.5,0],[1,0.75,0]];outlineConnect=0;fontColor=#232F3E;gradientColor=#945DF2;gradientDirection=north;fillColor=#5A30B5;strokeColor=#ffffff;dashed=0;verticalLabelPosition=bottom;verticalAlign=top;align=center;html=1;fontSize=12;fontStyle=0;aspect=fixed;shape=mxgraph.aws4.resourceIcon;resIcon=mxgraph.aws4.redshift;" vertex="1" parent="UEzPUAAOIrF-is8g5C7q-108">
          <mxGeometry x="86" y="212" width="78" height="78" as="geometry" />
        </mxCell>
        <mxCell id="oFimYsPyZa1FVkpFkLgv-14" value="Creates job that can&lt;br&gt;&amp;nbsp;be applied to&amp;nbsp;future&lt;br&gt;&amp;nbsp;incoming data" style="text;html=1;align=center;verticalAlign=middle;resizable=0;points=[];autosize=1;strokeColor=none;fillColor=none;fontColor=#000000;" vertex="1" parent="UEzPUAAOIrF-is8g5C7q-108">
          <mxGeometry x="60" y="-5" width="130" height="60" as="geometry" />
        </mxCell>
        <mxCell id="oFimYsPyZa1FVkpFkLgv-12" value="" style="sketch=0;points=[[0,0,0],[0.25,0,0],[0.5,0,0],[0.75,0,0],[1,0,0],[0,1,0],[0.25,1,0],[0.5,1,0],[0.75,1,0],[1,1,0],[0,0.25,0],[0,0.5,0],[0,0.75,0],[1,0.25,0],[1,0.5,0],[1,0.75,0]];outlineConnect=0;fontColor=#232F3E;gradientColor=#945DF2;gradientDirection=north;fillColor=#5A30B5;strokeColor=#ffffff;dashed=0;verticalLabelPosition=bottom;verticalAlign=top;align=center;html=1;fontSize=12;fontStyle=0;aspect=fixed;shape=mxgraph.aws4.resourceIcon;resIcon=mxgraph.aws4.glue_databrew;" vertex="1" parent="UEzPUAAOIrF-is8g5C7q-108">
          <mxGeometry x="86" y="45" width="78" height="78" as="geometry" />
        </mxCell>
        <mxCell id="oFimYsPyZa1FVkpFkLgv-18" style="edgeStyle=orthogonalEdgeStyle;rounded=0;orthogonalLoop=1;jettySize=auto;html=1;fontColor=#000000;strokeWidth=2;startArrow=none;" edge="1" parent="UEzPUAAOIrF-is8g5C7q-108" source="oFimYsPyZa1FVkpFkLgv-12" target="oFimYsPyZa1FVkpFkLgv-15">
          <mxGeometry relative="1" as="geometry">
            <Array as="points" />
          </mxGeometry>
        </mxCell>
        <mxCell id="oFimYsPyZa1FVkpFkLgv-40" value="&lt;b&gt;Data transformation and loading&lt;/b&gt;" style="text;html=1;align=center;verticalAlign=middle;resizable=0;points=[];autosize=1;strokeColor=none;fillColor=none;fontColor=#000000;" vertex="1" parent="UEzPUAAOIrF-is8g5C7q-108">
          <mxGeometry x="55" y="345" width="210" height="30" as="geometry" />
        </mxCell>
        <mxCell id="oFimYsPyZa1FVkpFkLgv-13" value="AWS Glue DataBrew" style="text;html=1;align=center;verticalAlign=middle;resizable=0;points=[];autosize=1;strokeColor=none;fillColor=none;fontColor=#000000;" vertex="1" parent="UEzPUAAOIrF-is8g5C7q-108">
          <mxGeometry x="60" y="123" width="140" height="30" as="geometry" />
        </mxCell>
        <mxCell id="oFimYsPyZa1FVkpFkLgv-16" value="Redshift DB" style="text;html=1;align=center;verticalAlign=middle;resizable=0;points=[];autosize=1;strokeColor=none;fillColor=none;fontColor=#000000;" vertex="1" parent="UEzPUAAOIrF-is8g5C7q-108">
          <mxGeometry x="80" y="296" width="90" height="30" as="geometry" />
        </mxCell>
        <mxCell id="oFimYsPyZa1FVkpFkLgv-33" style="edgeStyle=orthogonalEdgeStyle;rounded=0;orthogonalLoop=1;jettySize=auto;html=1;strokeWidth=2;fontColor=#000000;" edge="1" parent="UEzPUAAOIrF-is8g5C7q-74" source="UEzPUAAOIrF-is8g5C7q-85" target="oFimYsPyZa1FVkpFkLgv-15">
          <mxGeometry relative="1" as="geometry" />
        </mxCell>
        <mxCell id="UEzPUAAOIrF-is8g5C7q-106" style="edgeStyle=orthogonalEdgeStyle;rounded=0;orthogonalLoop=1;jettySize=auto;html=1;endArrow=open;endFill=0;strokeWidth=2;entryX=0;entryY=0.5;entryDx=0;entryDy=0;entryPerimeter=0;" parent="UEzPUAAOIrF-is8g5C7q-74" source="UEzPUAAOIrF-is8g5C7q-77" target="oFimYsPyZa1FVkpFkLgv-12" edge="1">
          <mxGeometry relative="1" as="geometry">
            <mxPoint x="740" y="99" as="targetPoint" />
          </mxGeometry>
        </mxCell>
        <mxCell id="oFimYsPyZa1FVkpFkLgv-39" value="&lt;b&gt;Data extraction&lt;/b&gt;" style="text;html=1;align=center;verticalAlign=middle;resizable=0;points=[];autosize=1;strokeColor=none;fillColor=none;fontColor=#000000;" vertex="1" parent="UEzPUAAOIrF-is8g5C7q-74">
          <mxGeometry x="420" y="168" width="110" height="30" as="geometry" />
        </mxCell>
        <mxCell id="oFimYsPyZa1FVkpFkLgv-28" style="edgeStyle=orthogonalEdgeStyle;rounded=0;orthogonalLoop=1;jettySize=auto;html=1;entryX=0.5;entryY=0;entryDx=0;entryDy=0;entryPerimeter=0;fontColor=#000000;" edge="1" parent="1" source="oFimYsPyZa1FVkpFkLgv-3" target="oFimYsPyZa1FVkpFkLgv-19">
          <mxGeometry relative="1" as="geometry" />
        </mxCell>
        <mxCell id="oFimYsPyZa1FVkpFkLgv-30" value="" style="edgeStyle=orthogonalEdgeStyle;rounded=0;orthogonalLoop=1;jettySize=auto;html=1;fontColor=#000000;strokeWidth=2;" edge="1" parent="1" source="oFimYsPyZa1FVkpFkLgv-3" target="oFimYsPyZa1FVkpFkLgv-19">
          <mxGeometry relative="1" as="geometry" />
        </mxCell>
        <mxCell id="oFimYsPyZa1FVkpFkLgv-38" style="edgeStyle=orthogonalEdgeStyle;rounded=0;orthogonalLoop=1;jettySize=auto;html=1;entryX=0;entryY=0.5;entryDx=0;entryDy=0;entryPerimeter=0;strokeWidth=2;fontColor=#000000;" edge="1" parent="1" source="oFimYsPyZa1FVkpFkLgv-3" target="oFimYsPyZa1FVkpFkLgv-31">
          <mxGeometry relative="1" as="geometry">
            <Array as="points">
              <mxPoint x="45" y="238" />
              <mxPoint x="45" y="556" />
            </Array>
          </mxGeometry>
        </mxCell>
        <mxCell id="oFimYsPyZa1FVkpFkLgv-3" value="Company" style="shape=umlActor;verticalLabelPosition=bottom;verticalAlign=top;html=1;outlineConnect=0;" vertex="1" parent="1">
          <mxGeometry x="108.5" y="188" width="50" height="100" as="geometry" />
        </mxCell>
        <mxCell id="UEzPUAAOIrF-is8g5C7q-88" value="" style="edgeStyle=orthogonalEdgeStyle;rounded=0;orthogonalLoop=1;jettySize=auto;html=1;endArrow=open;endFill=0;strokeWidth=2;exitX=0.5;exitY=0.5;exitDx=0;exitDy=0;exitPerimeter=0;entryX=0;entryY=0.5;entryDx=0;entryDy=0;entryPerimeter=0;" parent="1" source="oFimYsPyZa1FVkpFkLgv-3" target="oFimYsPyZa1FVkpFkLgv-5" edge="1">
          <mxGeometry relative="1" as="geometry">
            <mxPoint x="322.9999999999999" y="238" as="sourcePoint" />
          </mxGeometry>
        </mxCell>
        <mxCell id="oFimYsPyZa1FVkpFkLgv-6" value="Sends data via SFTP" style="text;html=1;align=center;verticalAlign=middle;resizable=0;points=[];autosize=1;strokeColor=none;fillColor=none;" vertex="1" parent="1">
          <mxGeometry x="150" y="209" width="140" height="30" as="geometry" />
        </mxCell>
        <mxCell id="oFimYsPyZa1FVkpFkLgv-21" style="edgeStyle=orthogonalEdgeStyle;rounded=0;orthogonalLoop=1;jettySize=auto;html=1;entryX=0;entryY=0.5;entryDx=0;entryDy=0;entryPerimeter=0;fontColor=#000000;strokeWidth=2;" edge="1" parent="1" source="oFimYsPyZa1FVkpFkLgv-19" target="oFimYsPyZa1FVkpFkLgv-15">
          <mxGeometry relative="1" as="geometry" />
        </mxCell>
        <mxCell id="oFimYsPyZa1FVkpFkLgv-19" value="" style="sketch=0;pointerEvents=1;shadow=0;dashed=0;html=1;strokeColor=none;labelPosition=center;verticalLabelPosition=bottom;verticalAlign=top;align=center;fillColor=#505050;shape=mxgraph.mscae.intune.dashboard;fontColor=#000000;" vertex="1" parent="1">
          <mxGeometry x="92" y="375" width="83" height="60" as="geometry" />
        </mxCell>
        <mxCell id="oFimYsPyZa1FVkpFkLgv-27" value="Dashboard" style="text;html=1;align=center;verticalAlign=middle;resizable=0;points=[];autosize=1;strokeColor=none;fillColor=none;fontColor=#000000;" vertex="1" parent="1">
          <mxGeometry x="95" y="449" width="80" height="30" as="geometry" />
        </mxCell>
        <mxCell id="oFimYsPyZa1FVkpFkLgv-34" style="edgeStyle=orthogonalEdgeStyle;rounded=0;orthogonalLoop=1;jettySize=auto;html=1;strokeWidth=2;fontColor=#000000;" edge="1" parent="1" source="oFimYsPyZa1FVkpFkLgv-31" target="UEzPUAAOIrF-is8g5C7q-85">
          <mxGeometry relative="1" as="geometry" />
        </mxCell>
        <mxCell id="oFimYsPyZa1FVkpFkLgv-31" value="" style="outlineConnect=0;dashed=0;verticalLabelPosition=bottom;verticalAlign=top;align=center;html=1;shape=mxgraph.aws3.management_console;fillColor=#D2D3D3;gradientColor=none;fontColor=#000000;" vertex="1" parent="1">
          <mxGeometry x="102" y="524" width="63" height="63" as="geometry" />
        </mxCell>
        <mxCell id="oFimYsPyZa1FVkpFkLgv-32" value="Clonk" style="text;html=1;align=center;verticalAlign=middle;resizable=0;points=[];autosize=1;strokeColor=none;fillColor=none;fontColor=#000000;" vertex="1" parent="1">
          <mxGeometry x="108.5" y="599" width="50" height="30" as="geometry" />
        </mxCell>
      </root>
    </mxGraphModel>
  </diagram>
</mxfile>
